HIERARCHY
ROOT SpineBase
{
  OFFSET 0.000000 0.000000 0.000000
  CHANNELS 6 Xposition Yposition Zposition Zrotation Xrotation Yrotation
  JOINT SpineMid
  {
    OFFSET 0.000000 30.751771 0.000000
    CHANNELS 3 Zrotation Xrotation Yrotation
    JOINT SpineShoulder
    {
      OFFSET -0.025692 22.964192 -0.960052
      CHANNELS 3 Zrotation Xrotation Yrotation
      JOINT Neck
      {
        OFFSET -0.016267 7.636971 -0.681279
        CHANNELS 3 Zrotation Xrotation Yrotation
        JOINT Head
        {
          OFFSET -4.460738 12.489763 -0.087744
          CHANNELS 3 Zrotation Xrotation Yrotation
          End Site
          {
            OFFSET 0 0 0
          }
        }
      }
      JOINT ShoulderLeft
      {
        OFFSET -16.538950 -2.712973 9.543887
        CHANNELS 3 Zrotation Xrotation Yrotation
        JOINT ElbowLeft
        {
          OFFSET -3.644843 -22.976485 3.823997
          CHANNELS 3 Zrotation Xrotation Yrotation
          JOINT WristLeft
          {
            OFFSET 2.852537 -10.926706 -22.329232
            CHANNELS 3 Zrotation Xrotation Yrotation
            JOINT HandLeft
            {
              OFFSET -2.600350 -2.249370 -3.985249
              CHANNELS 3 Zrotation Xrotation Yrotation
              JOINT HandTipLeft
              {
                OFFSET -2.377024 0.821375 -6.517318
                CHANNELS 3 Zrotation Xrotation Yrotation
                End Site
                {
                  OFFSET 0 0 0
                }
              }
              JOINT ThumbLeft
              {
                OFFSET -4.220144 3.245748 -6.550599
                CHANNELS 3 Zrotation Xrotation Yrotation
                End Site
                {
                  OFFSET 0 0 0
                }
              }
            }
          }
        }
      }
      JOINT ShoulderRight
      {
        OFFSET 13.807366 -2.275656 -7.633742
        CHANNELS 3 Zrotation Xrotation Yrotation
        JOINT ElbowRight
        {
          OFFSET 6.082373 -23.471073 -3.396370
          CHANNELS 3 Zrotation Xrotation Yrotation
          JOINT WristRight
          {
            OFFSET -16.725368 -12.000403 -7.651451
            CHANNELS 3 Zrotation Xrotation Yrotation
            JOINT HandRight
            {
              OFFSET -6.284985 -2.776902 1.269902
              CHANNELS 3 Zrotation Xrotation Yrotation
              JOINT HandTipRight
              {
                OFFSET -7.284616 0.193655 -4.172686
                CHANNELS 3 Zrotation Xrotation Yrotation
                End Site
                {
                  OFFSET 0 0 0
                }
              }
              JOINT ThumbRight
              {
                OFFSET 0.234307 4.170998 -5.007739
                CHANNELS 3 Zrotation Xrotation Yrotation
                End Site
                {
                  OFFSET 0 0 0
                }
              }
            }
          }
        }
      }
    }
  }
  JOINT HipLeft
  {
    OFFSET -6.269910 0.721322 -0.779006
    CHANNELS 3 Zrotation Xrotation Yrotation
    JOINT KneeLeft
    {
      OFFSET -0.692973 -38.079666 -4.001095
      CHANNELS 3 Zrotation Xrotation Yrotation
      JOINT AnkleLeft
      {
        OFFSET -1.952398 -36.493614 -3.661092
        CHANNELS 3 Zrotation Xrotation Yrotation
        JOINT FootLeft
        {
          OFFSET -2.893284 -4.763732 -7.468216
          CHANNELS 3 Zrotation Xrotation Yrotation
          End Site
          {
            OFFSET 0 0 0
          }
        }
      }
    }
  }
  JOINT HipRight
  {
    OFFSET 6.332735 1.549966 -6.167975
    CHANNELS 3 Zrotation Xrotation Yrotation
    JOINT KneeRight
    {
      OFFSET 8.959095 -38.676482 -0.323264
      CHANNELS 3 Zrotation Xrotation Yrotation
      JOINT AnkleRight
      {
        OFFSET 6.546709 -34.377878 4.500985
        CHANNELS 3 Zrotation Xrotation Yrotation
        JOINT FootRight
        {
          OFFSET 0.359401 -6.315536 -4.836797
          CHANNELS 3 Zrotation Xrotation Yrotation
          End Site
          {
            OFFSET 0 0 0
          }
        }
      }
    }
  }
}
MOTION
Frames: 6
Frame Time: 0.033333
-22.029899 79.359935 337.231781 2.645364 4.633363 25.306603 0.408095 0.321141 -25.290123 -0.087253 0.292516 0.123927 3.528502 -7.741539 -0.450916 0.000000 0.000000 0.000000 7.605996 26.769247 -6.283561 -7.615871 -8.101155 4.283703 15.221576 -31.996122 -20.299193 10.218180 -21.184467 36.862002 0.000000 0.000000 0.000000 0.000000 0.000000 0.000000 -8.879022 7.278418 3.876036 -11.837042 -11.045929 1.364053 0.375581 15.041726 -39.324943 42.728189 1.939555 52.479020 0.000000 0.000000 0.000000 0.000000 0.000000 0.000000 -0.679351 -8.395117 -25.694252 15.174458 -6.556935 -0.277696 -11.731276 2.687805 -9.225100 0.000000 0.000000 0.000000 2.691638 17.364467 -21.368128 -0.420841 -15.492137 -4.355487 -17.681091 8.654837 14.173444 0.000000 0.000000 0.000000
-22.085867 79.383432 337.227931 2.779217 4.755232 25.263586 0.515272 0.419817 -25.249321 -0.082084 0.352797 0.131783 3.285071 -7.923900 -0.417658 0.000000 0.000000 0.000000 9.156536 28.854639 -7.073827 -10.188806 -9.417532 5.366388 20.056225 -41.498018 -17.421172 0.543199 -15.234208 29.592175 0.000000 0.000000 0.000000 0.000000 0.000000 0.000000 -9.328355 7.147028 3.906176 -11.339198 -10.875660 0.808276 -1.899063 14.819551 -38.206700 41.790102 2.939146 56.719723 0.000000 0.000000 0.000000 0.000000 0.000000 0.000000 -0.753148 -8.502876 -25.662461 14.950711 -6.607865 -0.242565 -11.387652 3.019926 -9.874531 0.000000 0.000000 0.000000 2.585953 17.266938 -21.342515 -0.519381 -15.483370 -4.374070 -16.620235 -16.136848 9.530278 0.000000 0.000000 0.000000
-22.169481 79.398668 337.231943 2.920764 4.905511 25.261510 0.564307 0.522861 -25.254695 -0.094718 0.392421 0.135488 3.160109 -8.304297 -0.433444 0.000000 0.000000 0.000000 10.401158 30.174879 -7.647774 -11.646088 -10.136488 5.480188 20.656066 -46.165324 -10.904864 -5.388420 -8.055754 22.992076 0.000000 0.000000 0.000000 0.000000 0.000000 0.000000 -9.889323 7.149355 4.011707 -10.898782 -10.850767 0.282925 -4.617488 14.529222 -36.931034 38.813353 2.713676 56.802207 0.000000 0.000000 0.000000 0.000000 0.000000 0.000000 -0.813109 -8.623129 -25.673256 14.689540 -6.688394 -0.193124 -11.409380 3.564485 -9.920407 0.000000 0.000000 0.000000 2.500732 17.126374 -21.363638 -0.643297 -15.503594 -4.400749 -14.145201 -25.589190 6.251021 0.000000 0.000000 0.000000
-22.267204 79.415054 337.239959 3.034789 5.066578 25.327607 0.582261 0.595974 -25.329033 -0.106907 0.408596 0.137785 3.145516 -8.594009 -0.427387 0.000000 0.000000 0.000000 11.001621 31.693443 -8.265857 -10.079825 -11.877759 3.502212 12.738013 -43.748868 1.997082 -3.058205 -1.490192 12.838434 0.000000 0.000000 0.000000 0.000000 0.000000 0.000000 -10.600724 7.285940 4.187135 -10.568013 -10.971909 -0.127810 -6.550031 15.376914 -37.652632 35.933073 2.247557 55.678200 0.000000 0.000000 0.000000 0.000000 0.000000 0.000000 -0.849995 -8.743993 -25.751161 14.442726 -6.768654 -0.142593 -11.911255 4.410981 -9.269666 0.000000 0.000000 0.000000 2.452053 16.936984 -21.456431 -0.772400 -15.526867 -4.427600 -10.796056 -25.134255 4.481435 0.000000 0.000000 0.000000
-22.376223 79.443070 337.233491 3.131205 5.238777 25.427291 0.547415 0.633888 -25.438578 -0.126823 0.398001 0.137386 3.210101 -8.797092 -0.410454 0.000000 0.000000 0.000000 11.709925 31.395994 -8.239706 -10.093743 -11.446601 2.460957 4.753957 -37.542862 1.614568 0.088558 -0.927458 12.200673 0.000000 0.000000 0.000000 0.000000 0.000000 0.000000 -11.248186 7.502931 4.384907 -10.240558 -11.028152 -0.621360 -7.511660 16.140935 -38.635468 33.598003 1.639711 52.643104 0.000000 0.000000 0.000000 0.000000 0.000000 0.000000 -0.874884 -8.899574 -25.861642 14.201748 -6.830988 -0.097439 -12.519648 5.132765 -8.383702 0.000000 0.000000 0.000000 2.432894 16.714310 -21.584334 -0.934032 -15.635773 -4.481214 -7.517770 -15.200625 4.106496 0.000000 0.000000 0.000000
-22.483867 79.475841 337.211605 3.216723 5.402159 25.536592 0.463042 0.624491 -25.557791 -0.158574 0.357474 0.134482 3.394082 -8.761251 -0.344551 0.000000 0.000000 0.000000 11.863689 30.705762 -8.003883 -9.595602 -11.439773 1.461477 -2.442951 -28.998675 0.233970 4.181581 -4.080351 14.060987 0.000000 0.000000 0.000000 0.000000 0.000000 0.000000 -11.793416 7.808776 4.595713 -9.779591 -10.985608 -1.259138 -8.555078 15.364186 -37.523098 32.593415 1.360772 41.908583 0.000000 0.000000 0.000000 0.000000 0.000000 0.000000 -0.911735 -9.075674 -25.980717 13.955683 -6.838515 -0.068813 -13.187204 5.909789 -7.431886 0.000000 0.000000 0.000000 2.408424 16.480245 -21.722664 -1.105496 -15.698651 -4.533237 -4.332108 -16.587602 2.040030 0.000000 0.000000 0.000000
